<svg id="SvgjsSvg1001" width="288" height="288" xmlns="http://www.w3.org/2000/svg" version="1.1" xmlns:xlink="http://www.w3.org/1999/xlink" xmlns:svgjs="http://svgjs.com/svgjs"><defs id="SvgjsDefs1002"></defs><g id="SvgjsG1008"><svg xmlns="http://www.w3.org/2000/svg" enable-background="new 0 0 72 64" viewBox="0 0 72 64" width="288" height="288"><path
                    fill="#f6cbad"
                    fill-rule="evenodd"
                    d="M66.193,23.743c-2.379-2.378-6.234-2.378-8.613,0l-5.581,5.581V6c0-3.313-2.686-6-6-6C42.686,0,40,2.688,40,6v20c0-3.313-2.688-6-6.001-6s-6,2.687-6,6c0-3.313-2.686-6-5.999-6c-3.314,0-6.001,2.687-6.001,6V10c0-3.313-2.686-6-6-6C6.686,4,4,6.688,4,10v32c0,3.314,2.686,6,5.999,6c3.314,0,6-2.686,6-6v-2c0,3.313,2.687,6,6.001,6c3.313,0,5.999-2.687,5.999-6v4c0,2.522,1.558,4.676,3.761,5.563l-0.018,0.019c-2.378,2.378-2.379,6.234,0,8.612c2.378,2.378,11.879,0.185,14.257-2.193l20.194-23.646C68.572,29.978,68.571,26.121,66.193,23.743z"
                    clip-rule="evenodd"
                  ></path>
                  <path
                    fill="#dbb59a"
                    fill-rule="evenodd"
                    d="M34,20.001c-3.314,0-6,2.687-6,6c0-3.313-2.687-6-6-6s-6,2.687-6,6v14c0,3.313,2.687,6,6,6s6-2.687,6-6v4c0,3.313,2.686,6,6,6c3.313,0,6-2.687,6-6v-18C40,22.688,37.313,20.001,34,20.001z"
                    clip-rule="evenodd"
                  ></path>
                  <path
                    fill="#ffefe0"
                    fill-rule="evenodd"
                    d="M18,40.001c0,2.209,1.791,4,4,4s4-1.791,4-4v-2h-8V40.001zM30,42.001v2c0,2.209,1.791,4,4,4s4-1.791,4-4v-2H30z"
                    clip-rule="evenodd"
                  ></path>
                  <path
                    fill="gray"
                    fill-rule="evenodd"
                    d="M40,34.001V40v4c0,3.314-2.688,6-6.001,6s-6-2.686-6-6v-4c0,3.313-2.686,6-5.999,6c-3.314,0-6.001-2.687-6.001-6v-5.999H4v5.995C4,39.998,3.999,39.999,3.999,40C3.999,40.013,4,40.025,4,40.039V42c0,0.68,0.118,1.33,0.326,1.939C6.207,55.319,16.087,64,27.999,64c6.943,0,13.179-2.966,17.561-7.678c0.138-0.109,0.331-0.213,0.439-0.321l11.982-14.03l-4.781-7.97H40z M45.999,0c-0.007,0-0.013,0.001-0.02,0.001h0.039C46.012,0.001,46.006,0,45.999,0z M64.776,34.001l-1.438,1.698l1.45-1.698H64.776z"
                    clip-rule="evenodd"
                  ></path></svg></g></svg>